<mxfile host="app.diagrams.net" modified="2024-02-06T06:52:26.672Z" agent="Mozilla/5.0 (X11; Linux x86_64) AppleWebKit/537.36 (KHTML, like Gecko) Chrome/109.0.0.0 Safari/537.36" version="23.1.1" etag="VRabLLs4hOR45K_oS_1B" type="github">
  <diagram name="Halaman-1" id="3MtG0TqOhNtEC-DaWDnX">
    <mxGraphModel>
      <root>
        <mxCell id="0" />
        <mxCell id="1" parent="0" />
      </root>
    </mxGraphModel>
  </diagram>
</mxfile>
